<?xml version="1.0" encoding="UTF-8" standalone="no"?>
<svg
   xmlns:dc="http://purl.org/dc/elements/1.1/"
   xmlns:cc="http://creativecommons.org/ns#"
   xmlns:rdf="http://www.w3.org/1999/02/22-rdf-syntax-ns#"
   xmlns:svg="http://www.w3.org/2000/svg"
   xmlns="http://www.w3.org/2000/svg"
   xmlns:sodipodi="http://sodipodi.sourceforge.net/DTD/sodipodi-0.dtd"
   xmlns:inkscape="http://www.inkscape.org/namespaces/inkscape"
   version="1.1"
   id="svg2"
   xml:space="preserve"
   width="632"
   height="350"
   viewBox="0 0 632 349.99999"
   sodipodi:docname="banner.svg"
   inkscape:version="1.0.1 (3bc2e813f5, 2020-09-07)"><metadata
     id="metadata8"><rdf:RDF><cc:Work
         rdf:about=""><dc:format>image/svg+xml</dc:format><dc:type
           rdf:resource="http://purl.org/dc/dcmitype/StillImage" /><dc:title /></cc:Work></rdf:RDF></metadata><defs
     id="defs6"><clipPath
       clipPathUnits="userSpaceOnUse"
       id="clipPath18"><path
         d="M 0,800 H 1200 V 0 H 0 Z"
         id="path16" /></clipPath><clipPath
       clipPathUnits="userSpaceOnUse"
       id="clipPath26"><path
         d="M 364.178,530.045 H 835.821 V 269.955 H 364.178 Z"
         id="path24" /></clipPath><linearGradient
       x1="0"
       y1="0"
       x2="1"
       y2="0"
       gradientUnits="userSpaceOnUse"
       gradientTransform="matrix(212.69141,0,0,-212.69141,623.12988,401.61865)"
       spreadMethod="pad"
       id="linearGradient46"><stop
         style="stop-opacity:1;stop-color:#ebad20"
         offset="0"
         id="stop32" /><stop
         style="stop-opacity:1;stop-color:#ebad20"
         offset="0.05"
         id="stop34" /><stop
         style="stop-opacity:1;stop-color:#efea4e"
         offset="0.4"
         id="stop36" /><stop
         style="stop-opacity:1;stop-color:#efea4e"
         offset="0.5"
         id="stop38" /><stop
         style="stop-opacity:1;stop-color:#efea4e"
         offset="0.6"
         id="stop40" /><stop
         style="stop-opacity:1;stop-color:#ebad20"
         offset="0.95"
         id="stop42" /><stop
         style="stop-opacity:1;stop-color:#ebad20"
         offset="1"
         id="stop44" /></linearGradient><linearGradient
       x1="0"
       y1="0"
       x2="1"
       y2="0"
       gradientUnits="userSpaceOnUse"
       gradientTransform="matrix(204.68506,0,0,-204.68506,364.17822,401.21143)"
       spreadMethod="pad"
       id="linearGradient66"><stop
         style="stop-opacity:1;stop-color:#ebad20"
         offset="0"
         id="stop52" /><stop
         style="stop-opacity:1;stop-color:#ebad20"
         offset="0.05"
         id="stop54" /><stop
         style="stop-opacity:1;stop-color:#efea4e"
         offset="0.4"
         id="stop56" /><stop
         style="stop-opacity:1;stop-color:#efea4e"
         offset="0.5"
         id="stop58" /><stop
         style="stop-opacity:1;stop-color:#efea4e"
         offset="0.6"
         id="stop60" /><stop
         style="stop-opacity:1;stop-color:#ebad20"
         offset="0.95"
         id="stop62" /><stop
         style="stop-opacity:1;stop-color:#ebad20"
         offset="1"
         id="stop64" /></linearGradient><linearGradient
       x1="0"
       y1="0"
       x2="1"
       y2="0"
       gradientUnits="userSpaceOnUse"
       gradientTransform="matrix(126.01074,0,0,-126.01074,530.99805,395.08203)"
       spreadMethod="pad"
       id="linearGradient86"><stop
         style="stop-opacity:1;stop-color:#ebad20"
         offset="0"
         id="stop72" /><stop
         style="stop-opacity:1;stop-color:#ebad20"
         offset="0.05"
         id="stop74" /><stop
         style="stop-opacity:1;stop-color:#efea4e"
         offset="0.4"
         id="stop76" /><stop
         style="stop-opacity:1;stop-color:#efea4e"
         offset="0.5"
         id="stop78" /><stop
         style="stop-opacity:1;stop-color:#efea4e"
         offset="0.6"
         id="stop80" /><stop
         style="stop-opacity:1;stop-color:#ebad20"
         offset="0.95"
         id="stop82" /><stop
         style="stop-opacity:1;stop-color:#ebad20"
         offset="1"
         id="stop84" /></linearGradient><linearGradient
       x1="0"
       y1="0"
       x2="1"
       y2="0"
       gradientUnits="userSpaceOnUse"
       gradientTransform="matrix(39.685547,0,0,-39.685547,475.34424,394.7168)"
       spreadMethod="pad"
       id="linearGradient106"><stop
         style="stop-opacity:1;stop-color:#ebad20"
         offset="0"
         id="stop92" /><stop
         style="stop-opacity:1;stop-color:#ebad20"
         offset="0.05"
         id="stop94" /><stop
         style="stop-opacity:1;stop-color:#efea4e"
         offset="0.4"
         id="stop96" /><stop
         style="stop-opacity:1;stop-color:#efea4e"
         offset="0.5"
         id="stop98" /><stop
         style="stop-opacity:1;stop-color:#efea4e"
         offset="0.6"
         id="stop100" /><stop
         style="stop-opacity:1;stop-color:#ebad20"
         offset="0.95"
         id="stop102" /><stop
         style="stop-opacity:1;stop-color:#ebad20"
         offset="1"
         id="stop104" /></linearGradient><linearGradient
       x1="0"
       y1="0"
       x2="1"
       y2="0"
       gradientUnits="userSpaceOnUse"
       gradientTransform="matrix(40.74707,0,0,-40.74707,683.20215,395.08008)"
       spreadMethod="pad"
       id="linearGradient126"><stop
         style="stop-opacity:1;stop-color:#ebad20"
         offset="0"
         id="stop112" /><stop
         style="stop-opacity:1;stop-color:#ebad20"
         offset="0.05"
         id="stop114" /><stop
         style="stop-opacity:1;stop-color:#efea4e"
         offset="0.4"
         id="stop116" /><stop
         style="stop-opacity:1;stop-color:#efea4e"
         offset="0.5"
         id="stop118" /><stop
         style="stop-opacity:1;stop-color:#efea4e"
         offset="0.6"
         id="stop120" /><stop
         style="stop-opacity:1;stop-color:#ebad20"
         offset="0.95"
         id="stop122" /><stop
         style="stop-opacity:1;stop-color:#ebad20"
         offset="1"
         id="stop124" /></linearGradient><linearGradient
       x1="0"
       y1="0"
       x2="1"
       y2="0"
       gradientUnits="userSpaceOnUse"
       gradientTransform="matrix(49.424805,0,0,-49.424805,422.91602,382.57812)"
       spreadMethod="pad"
       id="linearGradient146"><stop
         style="stop-opacity:1;stop-color:#ebad20"
         offset="0"
         id="stop132" /><stop
         style="stop-opacity:1;stop-color:#ebad20"
         offset="0.05"
         id="stop134" /><stop
         style="stop-opacity:1;stop-color:#efea4e"
         offset="0.4"
         id="stop136" /><stop
         style="stop-opacity:1;stop-color:#efea4e"
         offset="0.5"
         id="stop138" /><stop
         style="stop-opacity:1;stop-color:#efea4e"
         offset="0.6"
         id="stop140" /><stop
         style="stop-opacity:1;stop-color:#ebad20"
         offset="0.95"
         id="stop142" /><stop
         style="stop-opacity:1;stop-color:#ebad20"
         offset="1"
         id="stop144" /></linearGradient><linearGradient
       x1="0"
       y1="0"
       x2="1"
       y2="0"
       gradientUnits="userSpaceOnUse"
       gradientTransform="matrix(48.6875,0,0,-48.6875,728.56641,383.25488)"
       spreadMethod="pad"
       id="linearGradient166"><stop
         style="stop-opacity:1;stop-color:#ebad20"
         offset="0"
         id="stop152" /><stop
         style="stop-opacity:1;stop-color:#ebad20"
         offset="0.05"
         id="stop154" /><stop
         style="stop-opacity:1;stop-color:#efea4e"
         offset="0.4"
         id="stop156" /><stop
         style="stop-opacity:1;stop-color:#efea4e"
         offset="0.5"
         id="stop158" /><stop
         style="stop-opacity:1;stop-color:#efea4e"
         offset="0.6"
         id="stop160" /><stop
         style="stop-opacity:1;stop-color:#ebad20"
         offset="0.95"
         id="stop162" /><stop
         style="stop-opacity:1;stop-color:#ebad20"
         offset="1"
         id="stop164" /></linearGradient></defs><sodipodi:namedview
     pagecolor="#ffffff"
     bordercolor="#666666"
     borderopacity="1"
     objecttolerance="10"
     gridtolerance="10"
     guidetolerance="10"
     inkscape:pageopacity="0"
     inkscape:pageshadow="2"
     inkscape:window-width="1920"
     inkscape:window-height="1026"
     id="namedview4"
     showgrid="false"
     inkscape:pagecheckerboard="true"
     inkscape:zoom="1.4887498"
     inkscape:cx="292.72072"
     inkscape:cy="188.2352"
     inkscape:window-x="0"
     inkscape:window-y="1080"
     inkscape:window-maximized="1"
     inkscape:current-layer="g10"
     inkscape:document-rotation="0" /><g
     id="g10"
     inkscape:groupmode="layer"
     inkscape:label="gds-drake-light"
     transform="matrix(1.3333333,0,0,-1.3333333,-485.57119,706.72665)"><g
       id="g12"
       transform="translate(1.5,-1.5)"><g
         id="g14"
         clip-path="url(#clipPath18)"><g
           id="g20"><g
             id="g22" /><g
             id="g240"><g
               clip-path="url(#clipPath26)"
               opacity="0.699997"
               id="g238"><g
                 id="g176"><g
                   id="g174"><g
                     id="g172"><g
                       id="g170"><path
                         d="m 774.831,303.396 c -0.629,2.806 -1.585,5.585 -1.828,8.425 -0.801,9.387 1.833,18.394 3.268,27.554 1.93,12.322 4.464,24.726 4.605,37.119 0.297,26.027 -9.651,48.194 -28.476,66.349 -12.582,12.13 -26.766,22.1 -41.395,31.516 -0.255,0.165 -0.614,0.166 -1.623,0.415 10.399,-8.877 18.708,-18.551 24.36,-30.355 7.304,-15.243 9.608,-31.389 8.808,-48.09 -1.756,-36.712 -15.153,-69.808 -31.871,-101.835 -2.15,-4.115 -3.332,-8.125 -2.014,-12.794 1.67,-5.918 3.758,-7.698 9.399,-7.251 -4.11,-2.37 -7.845,-1.409 -10.485,3.056 -3.174,5.361 -3.976,11.022 -1.725,17.057 7.951,21.302 15.39,42.774 20.427,64.987 4.21,18.564 7.021,37.279 4.859,56.388 -2.205,19.472 -9.982,36.491 -23.58,50.577 -7.985,8.277 -16.645,15.905 -25.299,23.665 16.002,-32.531 19.596,-66.446 11.944,-101.585 -5.566,-25.57 -16.844,-48.455 -33.939,-68.503 0.897,2.14 1.763,4.3 2.697,6.43 8.491,19.394 15.683,39.203 19.962,60.018 4.074,19.824 5.216,39.755 3.639,59.926 -1.246,15.994 -4.422,31.569 -9.114,46.858 -0.568,1.852 -2.219,3.372 -3.606,4.78 14.778,-49.101 8.851,-96.833 -7.131,-144.054 -0.324,0.002 -0.651,0.009 -0.978,0.01 0,1.983 0.017,3.962 -0.006,5.942 -0.027,2.102 -0.013,4.208 -0.155,6.303 -0.958,14.009 -8.815,19.673 -22.71,16.413 -0.844,-0.197 -1.694,-0.363 -2.531,-0.577 -6.693,-1.691 -6.838,-1.773 -10.261,4.406 -8.206,14.792 -9.488,29.91 -1.958,45.457 1.322,2.73 3.216,3.584 6.013,4.024 14.673,2.29 27.083,8.516 34.081,22.261 7.226,14.202 6.479,28.718 -0.515,42.859 -1.013,2.048 -3.425,3.45 -5.293,5.028 -5.406,4.57 -11.182,8.912 -13.185,16.127 -0.659,2.385 -0.103,5.108 0.552,7.743 -1.172,-7.568 3.937,-11.448 8.704,-15.536 9.449,-8.103 21.034,-10.79 32.738,-13.768 33.766,-8.589 65.525,-21.72 92.952,-43.841 25.377,-20.468 42.462,-46.216 48.94,-78.441 2.727,-13.561 3.487,-27.336 1.902,-41.118 -1.163,-10.156 -2.783,-20.261 -4.201,-30.389 -0.346,0.016 -0.69,0.029 -1.033,0.045 -1.022,4.165 -1.808,8.408 -3.124,12.477 -1.327,4.092 -2.811,8.213 -4.872,11.966 -5.58,10.163 -14.34,13.494 -25.46,10.029 -2.667,-0.831 -5.253,-1.914 -7.153,-2.615 1.839,8.165 4.462,16.55 5.533,25.13 3.786,30.348 -2.553,57.799 -24.075,80.803 -20.649,22.067 -45.752,37.382 -73.117,49.424 -2.26,0.994 -4.539,1.947 -6.815,2.896 -0.208,0.086 -0.477,0.012 -1.848,0.012 2.099,-1.162 3.326,-1.875 4.584,-2.531 20.128,-10.522 40.021,-21.412 57.643,-35.955 17.639,-14.564 31.008,-31.904 36.422,-54.654 4.401,-18.476 2.839,-36.643 -2.21,-54.682 -3.127,-11.166 -6.691,-22.215 -9.491,-33.459 -0.947,-3.805 -0.149,-8.045 -0.149,-12.087 -0.269,-0.119 -0.537,-0.235 -0.806,-0.355"
                         style="fill:url(#linearGradient46);fill-rule:evenodd;stroke:none"
                         id="path168" /></g></g></g></g><g
                 id="g186"><g
                   id="g184"><g
                     id="g182"><g
                       id="g180"><path
                         d="m 423.138,302.734 c 3.126,8.439 0.053,16.304 -2.103,24.257 -3.421,12.626 -7.836,25.082 -10.029,37.915 -4.753,27.828 1.054,53.457 19.255,75.638 14.327,17.462 32.65,29.949 52.007,41.049 9.544,5.469 19.283,10.601 28.705,16.451 -4.636,-2.011 -9.307,-3.949 -13.905,-6.044 -22.844,-10.407 -43.941,-23.461 -62.159,-40.922 -16.635,-15.945 -27.791,-34.748 -30.398,-57.98 -2.044,-18.223 -0.841,-36.107 6.445,-53.225 0.131,-0.311 0.064,-0.705 0.105,-1.287 -3.083,1.135 -5.957,2.472 -8.975,3.257 -10.928,2.841 -19.217,-0.726 -24.592,-10.78 -2.023,-3.786 -3.578,-7.878 -4.875,-11.98 -1.256,-3.975 -1.905,-8.137 -3.394,-12.337 -1.189,6.147 -2.917,12.247 -3.443,18.449 -0.942,11.096 -1.845,22.27 -1.545,33.379 0.718,26.639 9.453,50.686 25.485,71.987 19.358,25.719 45.351,42.6 74.397,55.305 19.197,8.395 39.364,13.655 59.591,18.916 9.486,2.466 17.701,8.395 23.727,16.453 1.553,2.075 1.645,5.244 2.42,7.952 1.344,-2.462 1.171,-5.229 0.142,-8.012 -2.162,-5.847 -6.473,-10.192 -11.343,-13.511 -6.691,-4.558 -9.974,-10.784 -11.477,-18.293 -3.33,-16.621 -0.063,-31.315 13.178,-42.799 7.023,-6.092 15.536,-9.016 24.568,-10.599 0.849,-0.148 1.711,-0.241 2.554,-0.429 0.338,-0.075 0.638,-0.328 0.955,-0.503 -14.055,-27.895 -13.987,-37.116 0.429,-55.447 -5.229,0.68 -10.384,1.551 -15.575,1.991 -11.45,0.969 -17.968,-4.356 -19.081,-15.703 -0.406,-4.15 -0.066,-8.372 -0.794,-12.794 -2.191,6.441 -4.651,12.808 -6.531,19.341 -7.412,25.789 -10.794,52.155 -9.632,78.945 0.655,15.101 1.666,28.471 9.292,46.597 -0.257,0.206 -0.514,0.411 -0.771,0.617 -1.297,-1.786 -3.176,-3.388 -3.804,-5.384 -6.728,-21.405 -10.22,-43.4 -9.971,-65.803 0.348,-31.194 7.738,-60.971 19.815,-89.645 2.379,-5.652 4.715,-11.319 7.45,-17.898 -25.553,27.793 -57.437,98.538 -22.702,169.758 -5.609,-5.075 -11.256,-10.109 -16.824,-15.229 -14.058,-12.925 -24.837,-27.877 -29.285,-46.857 -2.895,-12.346 -3.33,-24.817 -2.199,-37.346 2.953,-32.703 13.5,-63.434 24.802,-93.941 2.538,-6.854 2.418,-13.31 -1.616,-19.492 -2.395,-3.667 -6.039,-4.479 -9.787,-2.369 5.413,-0.305 8.266,1.945 9.268,7.507 0.77,4.255 0.244,8.216 -1.885,12.194 -12.355,23.08 -22.467,47.062 -28.142,72.729 -5.011,22.668 -6.572,45.287 0.896,67.827 4.676,14.108 12.789,25.882 23.625,35.9 1.086,1.004 2.146,2.037 2.886,3.583 -1.596,-0.989 -3.22,-1.942 -4.788,-2.978 -15.064,-9.928 -29.555,-20.552 -41.781,-33.979 -12.741,-13.989 -20.099,-30.378 -22.466,-49.147 -1.986,-15.751 0.431,-31.093 3.356,-46.477 1.753,-9.209 3.173,-18.521 3.982,-27.854 0.319,-3.685 -1.427,-7.554 -2.231,-11.339 -0.412,0.131 -0.823,0.259 -1.232,0.386"
                         style="fill:url(#linearGradient66);fill-rule:evenodd;stroke:none"
                         id="path178" /></g></g></g></g><g
                 id="g196"><g
                   id="g194"><g
                     id="g192"><g
                       id="g190"><path
                         d="m 627.566,307.653 c 0.955,6.951 -0.911,13.144 -4.27,14.549 1.406,-4.792 2.863,-9.755 4.27,-14.549 m -18.671,173.812 c -0.208,-0.409 -0.416,-0.817 -0.626,-1.223 1.965,-1.537 3.816,-3.268 5.954,-4.504 0.764,-0.442 2.22,0.314 3.362,0.521 -0.457,1.165 -0.62,3.031 -1.421,3.364 -2.285,0.948 -4.827,1.273 -7.269,1.842 m -33.654,-46.884 c -5.678,6.076 -11.326,12.122 -17.687,18.927 -0.391,-3.869 -0.726,-7.17 -1.044,-10.305 -6.141,2.644 -7.977,11.815 -4.418,22.7 -1.486,-1.46 -3.096,-2.814 -4.421,-4.405 -1.505,-1.803 -2.798,-3.791 -4.104,-5.751 -1.22,-1.833 -2.336,-3.737 -3.675,-5.897 -0.303,9.544 1.65,13.786 12.239,28.377 -7.136,-2.425 -14.272,-4.852 -21.133,-7.183 10.752,11.893 25.047,17.773 41.002,20.997 -5.799,4.826 -11.414,9.498 -17.029,14.17 0.134,0.159 0.269,0.32 0.404,0.479 10.359,-3.985 20.723,-7.97 31.425,-12.086 -4.789,8.594 -9.29,16.672 -13.792,24.751 0.429,0.286 0.859,0.568 1.288,0.853 6.885,-7.436 13.769,-14.872 20.781,-22.445 1.677,7.128 3.233,13.752 4.792,20.378 0.21,-0.084 0.42,-0.17 0.627,-0.258 0.344,-7.357 0.688,-14.715 1.038,-22.229 10.002,1.435 13.603,-6.712 19.543,-10.887 0.308,-0.217 0.327,-0.9 0.404,-1.379 1.2,-7.461 3.215,-9.436 10.718,-10.522 0.839,-0.12 1.665,-0.332 2.169,-0.434 0.742,-4.334 1.44,-8.4 2.263,-13.198 -3.969,-1.463 -8.577,-3.164 -13.521,-4.986 0.204,0.76 0.197,1.029 0.324,1.148 4.57,4.219 4.555,4.84 -1.058,7.514 -2.939,1.403 -6.102,2.338 -9.69,3.684 1.514,-5.544 4.3,-8.648 6.874,-8.63 v -6.23 c -6.481,-3.087 -13.547,-4.402 -21.673,-1.269 3.524,0.472 6.445,0.613 9.208,1.34 1.381,0.365 3.215,1.636 3.48,2.806 0.244,1.076 -1.074,2.872 -2.169,3.815 -3.731,3.219 -6.105,2.803 -8.907,-1.34 -3.512,2.36 -1.748,5.589 -2.037,9.064 -1.944,-2.054 -3.888,-4.112 -6.307,-6.667 0.176,3.037 0.336,5.848 0.5,8.723 -1.345,-1.9 -2.777,-3.922 -4.6,-6.496 -1.6,6.448 1.147,11.744 2.52,17.199 -0.339,0.139 -0.679,0.278 -1.017,0.416 -1.701,-3.494 -3.398,-6.986 -5.111,-10.508 -0.834,0.969 -1.938,2.244 -3.039,3.522 -0.329,-0.079 -0.659,-0.159 -0.988,-0.236 0.625,-3.2 1.25,-6.4 1.893,-9.691 -1.539,1.071 -3.188,2.226 -4.839,3.376 -0.247,-0.162 -0.495,-0.321 -0.744,-0.482 1.194,-1.82 2.187,-3.816 3.618,-5.428 8.507,-9.582 18.802,-16.939 29.989,-22.992 2.463,-1.334 5.75,-1.166 8.663,-1.646 1.066,-0.174 2.157,-0.219 3.761,-0.373 -3.941,-6.186 -5.606,-12.598 -6.392,-19.395 -1.603,-13.912 2.975,-25.819 12.214,-35.688 5.627,-6.01 12.689,-10.665 18.993,-16.061 2.531,-2.166 4.974,-4.513 7.065,-7.094 3.451,-4.26 4.641,-9.074 1.703,-14.126 -2.313,-3.973 -8.157,-5.777 -13.961,-4.745 -6.126,1.092 -11.347,3.821 -16.251,7.671 -4.952,3.882 -10.294,7.32 -15.72,10.517 -2.6,1.529 -5.887,2.594 -8.469,-0.464 -2,-2.365 -1.511,-5.936 1.461,-9.063 2.473,-2.601 5.222,-4.954 7.975,-7.266 8.438,-7.082 17.002,-14.01 25.382,-21.162 3.759,-3.205 7.261,-6.747 8.248,-12.324 -2.646,1.407 -5.005,2.665 -7.362,3.919 1.997,-7.095 5.872,-13.329 3.758,-20.981 -2.134,3.384 -4.124,6.539 -6.236,9.889 -4.595,-5.954 -8.553,-11.598 -13.051,-16.771 -4.461,-5.124 -9.831,-9.257 -16.325,-11.768 8.455,7.691 13.404,17.274 16.138,28.653 -3.955,-2.217 -7.512,-4.207 -11.065,-6.197 3.908,4.781 8.051,9.078 7.885,15.906 -3.564,-1.349 -6.91,-2.617 -10.256,-3.884 5.068,5.152 8.325,10.989 10.571,17.556 0.854,2.489 0.341,3.99 -1.763,5.286 -4.011,2.469 -8.051,4.897 -11.954,7.528 -3.149,2.122 -6.116,4.519 -9.917,7.358 0.431,-3.06 0.785,-5.575 1.184,-8.405 -8.589,4.782 -8.352,13.558 -9.785,22.161 -6.14,-3.396 -11.747,-6.306 -14.428,-12.906 -3.272,8.029 -0.59,13.052 11.659,21.566 -5.661,1.922 -10.853,3.685 -16.557,5.621 8.317,1.62 16.104,0.882 23.963,-0.135 12.916,-1.667 23.96,-7.45 34.462,-14.69 1.911,-1.315 4.071,-2.503 6.286,-3.061 1.559,-0.393 4.083,-0.203 4.946,0.793 0.893,1.029 1.028,3.881 0.211,4.995 -1.983,2.691 -4.31,5.749 -7.212,7.025 -7.316,3.213 -15.002,5.62 -22.599,8.173 -7.597,2.556 -15.223,5.044 -22.913,7.306 -12.488,3.669 -16.604,12.75 -17.25,24.07 -0.596,10.416 2.371,19.629 8.842,29.907"
                         style="fill:url(#linearGradient86);fill-rule:evenodd;stroke:none"
                         id="path188" /></g></g></g></g><g
                 id="g206"><g
                   id="g204"><g
                     id="g202"><g
                       id="g200"><path
                         d="m 505.492,473.866 c -17.348,-43.281 -14.627,-84.832 9.538,-124.141 -3.623,-1.168 -8.112,-1.657 -11.444,-3.878 -7.496,-4.999 -9.524,-13.197 -10.36,-21.646 -0.272,-2.767 -0.043,-5.584 -0.043,-8.378 -0.338,-0.086 -0.677,-0.169 -1.016,-0.255 -2.081,5.452 -4.46,10.81 -6.193,16.369 -7.369,23.662 -11.306,47.897 -10.534,72.702 0.52,16.653 3.152,32.997 11.151,47.977 4.615,8.641 10.676,16.049 18.901,21.25"
                         style="fill:url(#linearGradient106);fill-rule:evenodd;stroke:none"
                         id="path198" /></g></g></g></g><g
                 id="g216"><g
                   id="g214"><g
                     id="g212"><g
                       id="g210"><path
                         d="m 693.12,474.449 c 10.812,-7.119 17.719,-16.377 22.41,-27.41 5.548,-13.033 7.76,-26.721 8.276,-40.815 1.052,-28.822 -3.708,-56.655 -13.657,-83.653 -0.837,-2.272 -1.952,-4.441 -3.024,-6.861 -0.718,5.407 -0.878,10.602 -2.21,15.474 -1.116,4.068 -3.157,8.073 -5.586,11.546 -3.623,5.177 -9.14,6.883 -16.127,5.819 13.158,19.049 19.619,39.574 21.256,61.841 1.626,22.09 -1.359,43.273 -11.338,64.059"
                         style="fill:url(#linearGradient126);fill-rule:evenodd;stroke:none"
                         id="path208" /></g></g></g></g><g
                 id="g226"><g
                   id="g224"><g
                     id="g222"><g
                       id="g220"><path
                         d="m 463.931,450.409 c -6.162,-10.876 -9.667,-21.588 -11.35,-32.936 -1.778,-12.007 -1.581,-24.002 -0.04,-35.991 2.892,-22.494 9.834,-43.805 19.022,-64.447 0.192,-0.429 0.307,-0.89 0.778,-2.287 -4.408,5.661 -7.966,10.785 -12.104,15.391 -4.458,4.957 -9.039,9.985 -14.319,13.985 -8.021,6.077 -12.47,4.908 -18.109,-3.371 -0.255,-0.373 -0.584,-0.697 -1.517,-1.801 -1.097,7.543 -2.53,14.281 -2.988,21.08 -1.565,23.211 1.281,45.521 14.586,65.477 6.403,9.601 16.839,19.838 26.041,24.9"
                         style="fill:url(#linearGradient146);fill-rule:evenodd;stroke:none"
                         id="path218" /></g></g></g></g><g
                 id="g236"><g
                   id="g234"><g
                     id="g232"><g
                       id="g230"><path
                         d="m 728.566,316.668 c 4.23,12.371 8.71,24.27 12.361,36.42 5.848,19.476 8.765,39.401 6.616,59.781 -1.374,13.014 -4.886,25.444 -11.757,36.973 30.249,-10.686 51.103,-73.434 36.923,-110.367 -0.188,0.149 -0.424,0.265 -0.545,0.455 -5.958,9.365 -11.654,10.825 -19.852,3.229 -7.957,-7.365 -14.648,-16.098 -21.884,-24.237 -0.643,-0.72 -1.233,-1.487 -1.862,-2.254"
                         style="fill:url(#linearGradient166);fill-rule:evenodd;stroke:none"
                         id="path228" /></g></g></g></g></g></g></g></g></g></g></svg>
